<svg id="icon" display="none" aria-hidden="true" version="1.1" xmlns="http://www.w3.org/2000/svg">
	<symbol id="i-home" viewBox="0 0 24 24">
		<path id="path5" d="M3 11.2 12 4l9 7.2v7.8A1 1 0 0 1 20 20H4a1 1 0 0 1-1-1v-7.8Z" />
		<path id="path6" d="m9 20v-6a1 1 0 0 1 1-1h4a1 1 0 0 1 1 1v6" />
	</symbol>
	<symbol id="i-book" viewBox="0 0 24 24">
		<path id="path1" d="M4 5a2 2 0 0 1 2-2h11a3 3 0 0 1 3 3v13.5a.5.5 0 0 1-.79.407L17 18l-2.21 1.907a.5.5 0 0 1-.79-.407V6a1 1 0 0 0-1-1H6a2 2 0 0 1-2-2Z" />
		<path id="path2" d="m4 5v13a3 3 0 0 0 3 3h12" />
	</symbol>
	<symbol id="i-search" viewBox="0 0 24 24">
		<circle id="circle9" cx="11" cy="11" r="6" />
		<path id="path9" d="m16.2 16.2 3.3 3.3" />
	</symbol>
	<symbol id="i-edit" viewBox="0 0 24 24">
		<path id="path18" d="m4 17.5 1.5 2.5 3.7-0.7 9.8-9.8-3.5-3.5-11.5 11.5z" />
		<path id="path19" d="m15.5 6 1.9-1.9a1.4 1.4 0 0 1 2 2L19 7.5" />
	</symbol>
	<symbol id="i-filter" viewBox="0 0 24 24">
		<path id="path10" d="M4 5h16L14 13v4.8a1 1 0 0 1-1.5.9l-3-1.8a1 1 0 0 1-.5-.86V13L4 5Z" />
	</symbol>
	<symbol id="i-sort-v" viewBox="0 0 24 24">
		<path id="path11" d="m8 4v16l-3-3m3 3 3-3" />
		<path id="path12" d="m16 20v-16l3 3m-3-3-3 3" />
	</symbol>
	<symbol id="i-refresh" viewBox="0 0 24 24">
		<path id="path13" d="m20 5v5h-5" />
		<path id="path14" d="m4 19v-5h5" />
		<path id="path15" d="M6.3 9A7 7 0 0 1 18 10.2M17.7 15A7 7 0 0 1 6 13.8" />
	</symbol>
	<symbol id="i-plus" viewBox="0 0 24 24">
		<path id="path16" d="m12 4v16m-8-8h16" />
	</symbol>
	<symbol id="i-minus" viewBox="0 0 24 24">
		<path id="path17" d="m4 12h16" />
	</symbol>
	<symbol id="i-light" viewBox="0 0 24 24">
		<path d="M9 21h6v-1H9v1zm3-19a7 7 0 0 0-4 12.9V17a1 1 0 0 0 1 1h6a1 1 0 0 0 1-1v-2.1A7 7 0 0 0 12 2zm0 2a5 5 0 0 1 5 5c0 1.7-.9 3.2-2.3 4.1a1 1 0 0 0-.4.8V16h-5v-2.1a1 1 0 0 0-.4-.8A5 5 0 0 1 12 4z" />
	</symbol>
	<symbol id="i-html5" viewBox="0 0 24 24">
		<!-- shield background -->
		<path d="M12 0l-9.6 2.7L3.2 19.1 12 24l8.8-4.9.8-16.4L12 0z" />
		<!-- stylized "5" -->
		<path d="M16.1 7.1H7.9l.2 2.1h6.6l-.5 5.2L12 16.6l-1.8-.5-.2-2.1 1.4.4.4-.1.4-3.6H7.2l.6 6.6 4.2 1.9 4.1-1.9.8-8.6z" fill="#fff" />
	</symbol>

	<symbol id="i-download" viewBox="0 0 24 24">
		<path id="path24" d="m5 20h14" />
		<path id="path25" d="m12 4v12" />
		<path id="path26" d="m7.5 12.5 4.5 4.5 4.5-4.5" />
	</symbol>
	<symbol id="i-download-box" viewBox="0 0 24 24">
		<path id="path27" d="m4 13v6a1 1 0 0 0 1 1h14a1 1 0 0 0 1-1v-6" />
		<path id="path28" d="m12 4v10" />
		<path id="path29" d="m7.5 10.5 4.5 4.5 4.5-4.5" />
	</symbol>
	<symbol id="i-upload" viewBox="0 0 24 24">
		<path id="path37" d="m5 20h14" />
		<path id="path38" d="M12 20V8" />
		<path id="path39" d="m16.5 11.5-4.5-4.5-4.5 4.5" />
	</symbol>
	<symbol id="i-clipboard" viewBox="0 0 24 24">
		<path id="path40" d="m9 5h6" />
		<path id="path41" d="M8 3h8a1 1 0 0 1 1 1v2H7V4a1 1 0 0 1 1-1Z" />
		<path id="path42" d="M7 7h10v13a1 1 0 0 1-1 1H8a1 1 0 0 1-1-1V7Z" />
	</symbol>
	<symbol id="i-external" viewBox="0 0 24 24">
		<path id="path43" d="m14 5h5v5" />
		<path id="path44" d="m20 4-7.5 7.5" />
		<path id="path45" d="M10 5H7a2 2 0 0 0-2 2v10a2 2 0 0 0 2 2h10c1.1 0 2-.9 2-2v-3" />
	</symbol>
	<symbol id="i-info" viewBox="0 0 24 24">
		<circle id="circle45" cx="12" cy="12" r="9" />
		<path id="path46" d="M12 10v7M12 7h.01" />
	</symbol>
	<symbol id="i-warning" viewBox="0 0 24 24">
		<path id="path47" d="M12.9 4.5 21 19a1 1 0 0 1-.9 1.5H3.9A1 1 0 0 1 3 19l8.1-14.5a1 1 0 0 1 1.8 0Z" />
		<path id="path48" d="m12 9v5" />
		<path id="path49" d="M12 16h.01" />
	</symbol>
	<symbol id="i-error" viewBox="0 0 24 24">
		<path id="path50" d="M8 3h8l5 5v8l-5 5H8l-5-5V8l5-5Z" />
		<path id="path51" d="m9.5 9.5 5 5m0-5-5 5" />
	</symbol>
	<symbol id="i-check" viewBox="0 0 24 24">
		<path id="path52" d="m4 13 5.5 5.5 10.5-12" />
	</symbol>
	<symbol id="i-close" viewBox="0 0 24 24">
		<path id="path53" d="M5 5 19 19M19 5 5 19" />
	</symbol>
	<symbol id="i-user" viewBox="0 0 24 24">
		<circle id="circle53" cx="12" cy="9" r="4" />
		<path id="path54" d="m5 20c1.5-3.3 4.5-5 7-5s5.5 1.7 7 5" />
	</symbol>
	<symbol id="i-github" viewBox="0 0 24 24" fill="#fff">

		<path d="M12 0.296C5.372 0.296 0 5.668 0 12.296c0 5.289 3.438 9.773 8.207 11.367.6.112.793-.261.793-.577 0-.285-.011-1.234-.017-2.238-3.338.726-4.042-1.61-4.042-1.61-.546-1.387-1.333-1.756-1.333-1.756-1.089-.745.083-.73.083-.73 1.205.085 1.84 1.236 1.84 1.236 1.07 1.834 2.807 1.304 3.492.997.108-.775.419-1.305.762-1.606-2.665-.304-5.467-1.334-5.467-5.933 0-1.31.469-2.382 1.236-3.222-.124-.304-.535-1.527.117-3.182 0 0 1.008-.322 3.3 1.23a11.489 11.489 0 0 1 3.003-.404c1.019.004 2.045.138 3.003.404 2.291-1.552 3.297-1.23 3.297-1.23.654 1.655.243 2.878.12 3.182.77.84 1.235 1.912 1.235 3.222 0 4.61-2.807 5.625-5.479 5.922.43.37.823 1.101.823 2.22 0 1.605-.014 2.899-.014 3.293 0 .319.19.694.8.576C20.565 22.065 24 17.582 24 12.296 24 5.668 18.627 0.296 12 0.296z" />

	</symbol>

	<symbol id="i-codepen" viewBox="0 0 24 24">
		<path d="M21.838 8.445c0-.001-.001-.001 0 0l-.003-.004-.001-.001v-.001a.809.809 0 0 0-.235-.228l-9.164-6.08a.834.834 0 0 0-.898 0L2.371 8.214A.786.786 0 0 0 2 8.897v6.16a.789.789 0 0 0 .131.448v.001l.002.002.01.015v.002h.001l.001.001.001.001c.063.088.14.16.226.215l9.165 6.082a.787.787 0 0 0 .448.139.784.784 0 0 0 .45-.139l9.165-6.082a.794.794 0 0 0 .371-.685v-6.16a.793.793 0 0 0-.133-.452zm-9.057-4.172 6.953 4.613-3.183 2.112-3.771-2.536V4.273zm-1.592 0v4.189l-3.771 2.536-3.181-2.111 6.952-4.614zm-7.595 6.098 2.395 1.59-2.395 1.611v-3.201zm7.595 9.311-6.96-4.617 3.195-2.15 3.765 2.498v4.269zm.795-5.653-3.128-2.078 3.128-2.105 3.131 2.105-3.131 2.078zm.797 5.653v-4.27l3.766-2.498 3.193 2.15-6.959 4.618zm7.597-6.11-2.396-1.611 2.396-1.59v3.201z"/>
	</symbol>

	<symbol id="i-sun" viewBox="0 0 24 24">
		<circle cx="12" cy="12" r="5" />
		<path d="M12 1v2m0 18v2m11-11h-2M3 12H1m16.95-6.95-1.41 1.41M6.46 17.54l-1.41 1.41m0-13.9 1.41 1.41M17.54 17.54l1.41 1.41" />
	</symbol>
	<symbol id="i-tag" viewBox="0 0 24 24">
		<path id="path59" d="M4 11.5V4h7.5L21 13.5l-7.5 7.5L4 11.5Z" />
		<circle id="circle59" cx="9" cy="9" r="1.4" />
		 <path d="M9.5 3 8.8 7H5a1 1 0 1 0 0 2h3.5l-.8 4H4a1 1 0 1 0 0 2h3.3l-.8 4a1 1 0 1 0 2 .4l.9-4.4h4l-.9 4.4a1 1 0 1 0 2 .4l.9-4.8H19a1 1 0 1 0 0-2h-4.4l.8-4H19a1 1 0 1 0 0-2h-3.9l.7-3.8a1 1 0 0 0-2-.4L13 7H9l.8-4A1 1 0 1 0 9.5 3Zm-.9 6h4l-.8 4h-4l.8-4Z"/>
	</symbol>
	<symbol id="hash" viewBox="0 0 24 24">
		 <path d="M9.5 3 8.8 7H5a1 1 0 1 0 0 2h3.5l-.8 4H4a1 1 0 1 0 0 2h3.3l-.8 4a1 1 0 1 0 2 .4l.9-4.4h4l-.9 4.4a1 1 0 1 0 2 .4l.9-4.8H19a1 1 0 1 0 0-2h-4.4l.8-4H19a1 1 0 1 0 0-2h-3.9l.7-3.8a1 1 0 0 0-2-.4L13 7H9l.8-4A1 1 0 1 0 9.5 3Zm-.9 6h4l-.8 4h-4l.8-4Z"/>
	</symbol>
	<symbol id="i-star" viewBox="0 0 24 24">
		<path id="path60" d="m12 4 2.2 4.5 5 .7-3.6 3.6.9 5.1-4.5-2.4-4.5 2.4.9-5.1L4.8 9.2l5-.7L12 4Z" />
	</symbol>
	<symbol id="i-bell" viewBox="0 0 24 24">
		<path id="path65" d="M18 14V11a6 6 0 1 0-12 0v3l-1.5 2.3a.6.6 0 0 0 .5.9h15a.6.6 0 0 0 .5-.9L18 14Z" />
		<path id="path66" d="m10 19a2 2 0 0 0 4 0" />
	</symbol>
	<symbol id="i-terminal" viewBox="0 0 24 24">
		<rect id="rect66" x="3" y="5" width="18" height="14" rx="1.6" />
		<path id="path67" d="m7 10 3 2-3 2m4.5 0h5.5" />
	</symbol>
	<symbol id="i-list" viewBox="0 0 24 24">
		<path id="path75" d="M9 6h11M9 12h11M9 18h11" />
		<path id="path76" d="M4 6h.01M4 12h.01M4 18h.01" />
	</symbol>

	<symbol id="i-grid" viewBox="0 0 24 24">
		<rect id="rect76" x="4" y="4" width="6" height="6" rx="1" />
		<rect id="rect77" x="14" y="4" width="6" height="6" rx="1" />
		<rect id="rect78" x="4" y="14" width="6" height="6" rx="1" />
		<rect id="rect79" x="14" y="14" width="6" height="6" rx="1" />
	</symbol>
	<symbol id="i-arrow-right" viewBox="0 0 24 24">
		<path id="path79" d="m5 12h14" />
		<path id="path80" d="m13 6 6 6-6 6" />
	</symbol>
	<symbol id="i-chevron-down" viewBox="0 0 24 24">
		<path id="path81" d="m6 9.5 6 5.5 6-5.5" />
	</symbol>
	<symbol id="i-folder" viewBox="0 0 24 24">
		<path id="path82" d="M3 6a2 2 0 0 1 2-2h4l2 2h8a2 2 0 0 1 2 2v1H3V6Z" />
		<path id="path83" d="M3 10h18v6a2 2 0 0 1-2 2H5a2 2 0 0 1-2-2v-6Z" />
	</symbol>
	<symbol id="i-file" viewBox="0 0 24 24">
		<path id="path84" d="M7 3h6l5 5v11a2 2 0 0 1-2 2H7a2 2 0 0 1-2-2V5a2 2 0 0 1 2-2Z" />
		<path id="path85" d="m13 3v5h5" />
		<path d="M7 17V9h2l2 3 2-3h2v8h-2v-5l-2 3-2-3v5H7z" />
	</symbol>
	<symbol id="i-meta" viewBox="0 0 24 24">
		<!-- file/document shape -->
		<path d="M7 3h6l5 5v11a2 2 0 0 1-2 2H7a2 2 0 0 1-2-2V5a2 2 0 0 1 2-2Z" />
		<path d="m13 3v5h5" />
		<!-- metadata "i" icon -->
		<circle cx="12" cy="10" r="1" />
		<path d="M11 13h2v5h-2z" />
	</symbol>
	<symbol id="i-md" viewBox="0 0 24 24">
		<path id="path84" d="M7 3h6l5 5v11a2 2 0 0 1-2 2H7a2 2 0 0 1-2-2V5a2 2 0 0 1 2-2Z" />
		<path id="path85" d="m13 3v5h5" />
		<path d="M7 17V9h2l2 3 2-3h2v8h-2v-5l-2 3-2-3v5H7z" />
	</symbol>

	<symbol id="i-color" viewBox="0 0 24 24">
		<path id="path88" d="M12 3a9 9 0 0 0-9 9 9 9 0 0 0 9 9h.5a2.5 2.5 0 0 0 2.45-2.02c.07-.34.37-.63.72-.71.7-.15 1.43-.24 2.2-.24 1.78 0 3.13-1.57 2.96-3.33C20.97 8.59 16.95 3 12 3Z" />
		<circle id="circle88" cx="8.5" cy="10.5" r="1" />
		<circle id="circle89" cx="12" cy="8" r="1" />
		<circle id="circle90" cx="15.5" cy="10.5" r="1" />
	</symbol>

	<symbol id="i-check-circle" viewBox="0 0 24 24">
		<path id="path86" d="m12 21a9 9 0 1 0 0-18 9 9 0 0 0 0 18z" />
		<path id="path87" d="m9 12 2 2 4-4" />
	</symbol>
	<symbol id="i-tearran" viewBox="0 0 24 24" fill="#0F0">
	
		<path transform="scale(0.25)" id="0042" d="m39.4727 2.5c-9.98987.00798-15.3985 1.87624-20.8906 7.20898-3.02201 2.93431-4.83888 5.30368-6.28906 8.20703-1.56276 3.12859-2.08351 7.19719-2.48438 10.9023-.445267 4.11603-.69949 8.35695.105469 12.418.864482 4.36214 2.43889 8.72913 4.98242 12.377 2.8703 4.11647 8.30356 5.97882 11.1621 10.1035 6.03577 8.70909-.267728 21.714.503906 22.2266 7.58102-5.54738 9.05879-14.409 7.92969-19.8535-.415881-2.00536 7.79375 1.88256 3.83594 7.41406 3.95782-5.53154 2.12716-11.8882-1.93164-16.1562 0 0 10.9426 3.58466 6.87305 11.8555 2.73139-4.2504 4.05255-6.05497 3.08594-10.9785-2.26888-4.1424-6.51697-7.17435-13.1719-8.70508-5.27474-1.21328-10.4551-4.66944-13.4512-9.20117-2.05132-3.10282-2.78347-7.27152-2.18945-10.9434.921592-5.69679 3.59764-10.9536 8.57617-15.0391 4.95662-3.4065 8.91486-5.46034 13.9277-5.72852 7.7189-.413032 15.0516 1.49541 22.2656 6.48242 2.39181 1.65348 4.65704 4.01411 6.01758 6.27344 1.1329 1.88132 2.35233 5.58367 3.11914 9.46484.488508 2.47368.550106 5.55218.158203 7.9375-.342817 2.0873-.321947 3.18302.08398 4.33789.395079 1.12408 1.7876 3.55476 3.77148 6.58789 1.58041 2.41631 1.76572 2.98539 1.30469 4.00781-.35279.782339-1.0147 1.34864-2.17383 1.86133-1.12796.498924-1.30945 1.01682-.941406 2.69141.324784 1.4781.208894 1.96296-.765625 3.19336-.535303.675859-.534993.677808-.259766 1.36524.496955 1.24201.335064 1.83116-.988281 3.58398-.686314.908725-.697751.944924-.822266 2.83203-.111746 1.69294-.190619 2.03827-.699218 3.02734-.360411.700914-.883292 1.37697-1.40234 1.81445-.737633.621803-.941643.704271-1.89453.761719-.587619.03591-1.61195-.05631-2.27539-.203125-5.47485-1.21005-6.40968-1.36243-8.44336-1.38086-1.69307-.01197-2.2884.05282-3.28906.367187-1.44312.453963-3.51082 1.75892-4.94727 3.12109-1.1491 1.08969-6.90061 7.70682-7.69531 8.85352-.591218.853032-2.53747 5.71399-3.18359 7.95117-.47024 1.62815-.552635 2.72302-.261719 3.48828l.179688.472656 1.04102-1.02148c.57329-.561679 2.77549-2.90644 5.24024-5.58789 2.46473-2.68149 4.25109-4.55565 5.5918-5.72656 1.34072-1.17087 2.39181-1.80737 3.85352-2.52148 2.04423-.998728 2.79432-1.10678 6.25-.888672 4.52216.285647 6.83128.680844 10.5762 1.81055.578699.17474 1.65266.300009 2.75977.318359 1.76895.02793 1.83304.01443 2.66992-.521484.471741-.302802 1.19686-.88309 1.60938-1.29102 1.3507-1.33584 1.73498-2.44663 1.90039-5.47461l.121094-2.2168 1.04297-1.26367c.573245-.695088 1.13277-1.43357 1.24219-1.64062.301445-.570217.231006-1.77429-.152343-2.61914l-.341797-.75586.646484-.769531c1.55587-1.84649 1.65552-2.18605 1.16602-4.00977-.299172-1.1143-.330979-2.12905-.08008-2.59766.09854-.183915.783966-.637946 1.52344-1.00976 2.15427-1.08315 2.93486-1.91634 2.98242-3.18164.02793-.741046-.641204-1.93705-2.71094-4.8418-1.70695-2.39568-2.85475-4.20266-4.00977-6.31055-.71541-1.30368-.721214-1.32692-.720703-3.10156.000295-.983408.133906-2.48494.294922-3.33789.354784-1.87705.39685-6.84118.07227-8.53125-.40544-2.11275-1.55306-6.46098-2.18164-8.26953-1.28829-3.70663-2.80644-6.01171-5.95703-9.04688-2.85753-2.75286-5.66156-4.57982-9.49414-6.18555-6.19515-2.59552-15.4185-4.41395-22.3672-4.40625zm4.77148 14v.0039c-1.23264-.0028-2.47247.06599-3.07031.210938-3.08105.748037-5.64654 2.20511-7.61523 4.32422-3.66751 3.94772-4.87435 9.40589-3.21094 14.5254.32095.987779.405214 1.08446 1.05078 1.20703.433222.0822.431397.16899.0098-1.01172-.39818-1.11462-.675716-2.34574-.755859-3.35352l-.07422-.945312h5.61133l.134766 1.61133c.152708 1.82254.541927 4.01775.734375 4.13672.100418.0624.737944.01104.851562-.06836.01283-.007-.104596-.63279-.259765-1.38672-.15517-.753899-.315254-2.02434-.355469-2.82226l-.07227-1.45117 3.13867-.04102c1.79696-.0243 3.23604.003 3.36719.06445.126006.0586-.0039 3.58984-.0039 3.58984l.919922-.177734.03711-3.09375.03516-.361328h3.19336c1.75645 0 3.21271.03844 3.23633.08594.02358.0475.01.600429-.03125 1.23047-.0413.630079-.06139 1.16618-.04297 1.18945l-.181641.720703c-.48665.24654-.95998.501318-.939453.554688l.328125.851562c.0111.0277.118882.0083.265625-.03711l-.632813 2.50195s-.94163 2.49339-1.68555 3.49805c-.973741 1.31508-1.93953 2.09002-3.00976 2.41211l-.515625.154297-.144531-5.06836-.925782.365234.04102 4.59961h-.275391c-.443135 0-1.56841-.653092-2.22852-1.29492-.840542-.817319-1.53911-1.82057-2.0918-3l-.466797-.99414-.419922.07617c-.230448.043-.438223.10068-.462891.125-.08017.0787.564682 1.45618 1.11328 2.37891.294386.495149.805937 1.19877 1.13672 1.56445.330763.36565.601563.694479.601563.730469 0 .10576-1.59206-.496581-2.46289-.931641-1.11222-.555629-2.15789-1.27276-3.03516-2.08398-.726192-.67154-.739069-.695154-.515625-.876953.126008-.10264.67797-.512191 1.30664-.712891l1.79492-.572266.767578-.246093.86914-.400391c.420071-.19348.816407-.239259.816407-.287109 0-.0479-.105779-.222472-.236329-.388672-.271502-.34501-.508196-.368786-1.29883-.128907-.662147.20076-3.84869.233851-5.53125.05664-1.64279-.17303-4.22755-1.10627-4.70117-1.69726-1.03589-1.29253-1.03499-2.2695-.002-3.81641.462138-.691999.486328-.773957.486329-1.56055 0-.502059-.04599-.817361-.115235-.794922-.06301.0208-.433249.419607-.824219.884766-1.26693 1.50734-1.78455 2.92152-1.52539 4.16992.464589 2.2379 2.92332 3.62838 7.27539 4.11719l1.14648.128906-.552735.324218c-.496513.29161-.571865.309287-.74414.154297-.217134-.194879-1.39648-.442318-1.39648-.292968 0 .169549 1.25522 1.61506 2.1582 2.48633 2.09765 2.02396 5.14732 3.46996 8.0957 3.83789.96009.11998 3.32.06113 4.30469-.107421 5.67684-.9704 10.2265-5.20185 11.6719-10.8535.126147-.49332.264096-1.23687.306641-1.65234l.07617-.755859-.332032.238281c-.555984.39626-.697271.629951-.839843 1.40625-.179719.978619-.292674 1.33766-.837891 2.63672-.425591 1.01406-1.0832 2.12668-1.72266 2.91016l-.271485.330078-.794922-.46875c-.436343-.25833-1.1798-.631638-1.65234-.830078-.472547-.19834-.89604-.39527-.941407-.4375-.04535-.0423-.0079-.357905.08399-.703125.09813-.36887.299933-1.03457.460937-1.65039 1.10566-.474349 2.45973-1.11259 3.06836-1.45508 4.10819-2.31173 6.44227-4.77139 6.67969-7.04297.214324-2.05059-1.28508-3.69441-4.16797-4.57226-.267757-.0818-.486328-.12492-.486328-.09375 0 .0312.183855.38596.408204.787109.353923.63289.488238.767579 1.02148 1.01172.338009.15465.84984.495223 1.13477.757813 1.33775 1.23311 1.10862 2.78174-.69336 4.69726l-.863281.917969h-5.78711l-.07813-1.11719c-.105514-1.49954-.376379-3.32541-.654296-4.42383-.125384-.495609-.212361-.913977-.19336-.929687.01873-.0173.344602-.141287.722656-.279297.378037-.138 1.14111-.508836 1.69531-.822266.554198-.313459 1.04875-.543138 1.09961-.511718.232736.143899 1.33236 1.88083 1.72852 2.73047.708744 1.52003 1.26172 3.53098 1.26172 4.58984v.359375l.933593-.933594-.130859-.71875c-.807275-4.45182-3.78848-8.49918-7.67773-10.4258-.409541-.202846-.885329-.444457-1.05859-.537109-.17327-.09258-.314453-.132495-.314453-.08984 0 .04265-.06575.02725-.144531-.03516-.164137-.127279-.931722-.374366-2.08984-.671875-.576884-.148061-1.8025-.225049-3.03516-.228516zm-.572266.882812v6.86133l-.775391-.01367c-.936459-.0173-1.76628-.131555-3.32812-.458985-1.3898-.291269-1.355-.167097-.529297-1.91602 1.09037-2.30931 2.55748-3.84893 4.11719-4.31836l.515625-.154297zm1.34961.08594c.117166.007.276096.07619.494141.150391 1.34366.457982 2.80086 2.07958 3.83203 4.26367.805004 1.70513.83397 1.58898-.486328 1.87695-.618302.134889-1.52667.299804-2.01953.365234-.492854.0655-1.17561.119141-1.51758.119141h-.623047v-3.37891c0-2.83393-.03104-3.41074.320312-3.39648zm-4.46289.423828c.01185.0024.01953.0079.01953.01563 0 .03502-.270776.35656-.601563.716797-.74246.808644-1.55907 2.15815-2.08398 3.44336-.218693.53559-.463317.987114-.544922 1.00195-.32497.0593-2.95508-1.23775-2.95508-1.45703 0-.14217 1.19095-1.2041 1.98828-1.77148.386512-.27532 1.13358-.71464 1.6582-.978516.833098-.419077 2.15178-.92877 2.46875-.96875.02264-.0035.03894-.0045.05078-.002zm7.25391 0c.01196-.0026.0295-.0035.05273 0v.002c.32341.04265 1.66913.55975 2.48438.972657 1.12904.571851 2.49093 1.52911 3.18359 2.23828.493515.505309.498607.524076.275391.691406-.126008.0943-.692716.399615-1.25977.677734-1.30394.63958-1.63252.72318-1.73242.4375-.563653-1.61183-1.52378-3.30384-2.44922-4.31641-.314673-.344321-.572266-.654812-.572266-.689453 0-.007.0056-.01107.01758-.01367zm-14.1523 4.48242.796875.462891c.774129.449939 1.40692.753593 2.22461 1.06445.220495.0839.416771.160435.433593.171875.01699.0104-.07209.455135-.197265.984375-.286449 1.21122-.537915 2.92521-.640625 4.36914l-.08008 1.11719h-5.61914l.07422-.945313c.143727-1.80749.805792-3.81717 1.8125-5.50586.325559-.546129.728355-1.1564.894531-1.35547l.300781-.363281zm4.56836 2.09766c.08509 0 .584604.100277 1.10938.222656.961259.22435 2.13264.399898 3.55859.529297l.775391.06836v5.25195h-3.18945c-1.75366 0-3.21076-.02478-3.23828-.05078-.02774-.0277-.01149-.645551.03516-1.375.143137-2.23364.635669-4.64648.949219-4.64648zm11.9434.06445c.08273-.003.136094.0011.148437.01367.244665.25659.744158 3.40958.822266 5.19141l.03125.746093-3.23438.03125-3.23828.03125v-2.63867c0-1.45014.04062-2.63474.08789-2.63476.629354-.00076 2.91624-.302427 4.02148-.529297.584847-.11998 1.11309-.200538 1.36133-.210938zm2.00977 6.92578 4.49219.0039-.287109.238281c-1.32449 1.02249-2.93371 1.76128-4.45117 2.46875.148755-.11235.109023-.851608.167969-1.6543l.07813-1.05664zm-5.12891 3.24414c-.92311.0513-1.88506.543657-2.07812 1.47266-.07441.357989-.07124.356598-.666015.542968l-.408203.126953-.507813.16211.02148.01172c-.0063-.003-.02172-.01057-.02148-.0098l-.443359.183594c-.248964.0856-.480273.192638-.513672.236328-.07826.10229-.0231.337589.0957.412109.09341.0586.159966.0579.738281 0l.320313-.03125-.44336.5-.447265.503906-.957031.21875c-.786967.18066-.971711.237093-1.04688.320313-.102047.11304-.09071.260099.02539.318359.04934.0243.82218-.111679 2.18555-.386719 1.98266-.399899 2.11113-.432293 2.18164-.533203.09619-.137649.06608-.268031-.08594-.363281-.108323-.068-.186781-.06123-.769531.07227l-.197266-.158203-.177734-.13086-.263672-.361328 1.04883-.140625.509766-.06445c.912331 1.04746 2.28633.795048 3.14648.267578.815628-.500289 1.54242-1.28757 1.20508-2.28516-.337349-.997559-1.54346-.859906-2.45117-.884766zm-2.79883.78125c-.07313-.001-1.0415.231466-2.15234.515625-2.07592.53083-2.16076.56002-2.11719.75.04209.18378.133869.179216 1.14648-.05273l.984375-.226563.636719.25586.722656-.16211.111329-.246093.15625-.208985c.644315-.16123.695865-.181689.724609-.287109.04601-.16886-.05738-.334771-.212891-.337891zm6.80078 3.44141c.185162-.0385 2.35634.96581 2.75586 1.27539.225073.17441.220042.184014-.173828.595703-.66243.69242-2.05942 1.68903-3.15234 2.25-1.0268.52699-2.6875 1.1806-2.6875 1.05664 0-.0361.268824-.364789.599609-.730469.734789-.812249 1.58802-2.22466 2.09961-3.47656.215399-.52709.458509-.949764.558594-.970703z" />
	</symbol>
		
</svg>