<svg id="svg90" display="none" aria-hidden="true" version="1.1" xmlns="http://www.w3.org/2000/svg">
		<symbol id="i-book" viewBox="0 0 24 24">
				<path id="path1" d="M4 5a2 2 0 0 1 2-2h11a3 3 0 0 1 3 3v13.5a.5.5 0 0 1-.79.407L17 18l-2.21 1.907a.5.5 0 0 1-.79-.407V6a1 1 0 0 0-1-1H6a2 2 0 0 1-2-2Z"/>
				<path id="path2" d="m4 5v13a3 3 0 0 0 3 3h12"/>
		</symbol>
		<symbol id="i-palette" viewBox="0 0 24 24">
				<path id="path3" d="M12 3a9 9 0 0 0-9 9 9 9 0 0 0 9 9h.5a2.5 2.5 0 0 0 2.45-2.02c.07-.34.37-.63.72-.71.7-.15 1.43-.24 2.2-.24 1.78 0 3.13-1.57 2.96-3.33C20.97 8.59 16.95 3 12 3Z"/>
				<circle id="circle3" cx="8.5" cy="10.5" r="1"/>
				<circle id="circle4" cx="12" cy="8" r="1"/>
				<circle id="circle5" cx="15.5" cy="10.5" r="1"/>
		</symbol>
		<symbol id="i-home" viewBox="0 0 24 24">
				<path id="path5" d="M3 11.2 12 4l9 7.2v7.8A1 1 0 0 1 20 20H4a1 1 0 0 1-1-1v-7.8Z"/>
				<path id="path6" d="m9 20v-6a1 1 0 0 1 1-1h4a1 1 0 0 1 1 1v6"/>
		</symbol>
		<symbol id="i-settings" viewBox="0 0 24 24">
				<circle id="circle6" cx="12" cy="12" r="3.25"/>
				<path id="path7" d="M19.4 13.5c.04-.49.04-1.01 0-1.5l1.66-1.18a.6.6 0 0 0 .14-.78l-1.58-2.74a.6.6 0 0 0-.74-.26l-1.96.79a7.1 7.1 0 0 0-1.3-.75l-.3-2.1A.6.6 0 0 0 14.73 4h-3.46a.6.6 0 0 0-.59.48l-.3 2.1c-.46.19-.9.44-1.3.75l-1.96-.79a.6.6 0 0 0-.74.26L4.8 9.04a.6.6 0 0 0 .14.78L6.6 11c-.04.49-.04 1.01 0 1.5l-1.66 1.18a.6.6 0 0 0-.14.78l1.58 2.74c.16.28.5.4.74.26l1.96-.79c.4.31.84.56 1.3.75l.3 2.1c.05.29.3.48.59.48h3.46c.29 0 .54-.19.59-.48l.3-2.1c.46-.19.9-.44 1.3-.75l1.96.79c.24.14.58.02.74-.26l1.58-2.74a.6.6 0 0 0-.14-.78L19.4 13.5Z"/>
		</symbol>
		<symbol id="i-pin" viewBox="0 0 24 24">
				<path id="path8" d="m12 21s6-6.4 6-11a6 6 0 1 0-12 0c0 4.6 6 11 6 11z"/>
				<circle id="circle8" cx="12" cy="10" r="2.4"/>
		</symbol>
		<symbol id="i-search" viewBox="0 0 24 24">
				<circle id="circle9" cx="11" cy="11" r="6"/>
				<path id="path9" d="m16.2 16.2 3.3 3.3"/>
		</symbol>
		<symbol id="i-filter" viewBox="0 0 24 24">
				<path id="path10" d="M4 5h16L14 13v4.8a1 1 0 0 1-1.5.9l-3-1.8a1 1 0 0 1-.5-.86V13L4 5Z"/>
		</symbol>
		<symbol id="i-sort-v" viewBox="0 0 24 24">
				<path id="path11" d="m8 4v16l-3-3m3 3 3-3"/>
				<path id="path12" d="m16 20v-16l3 3m-3-3-3 3"/>
		</symbol>
		<symbol id="i-refresh" viewBox="0 0 24 24">
				<path id="path13" d="m20 5v5h-5"/>
				<path id="path14" d="m4 19v-5h5"/>
				<path id="path15" d="M6.3 9A7 7 0 0 1 18 10.2M17.7 15A7 7 0 0 1 6 13.8"/>
		</symbol>
		<symbol id="i-plus" viewBox="0 0 24 24">
				<path id="path16" d="m12 4v16m-8-8h16"/>
		</symbol>
		<symbol id="i-minus" viewBox="0 0 24 24">
				<path id="path17" d="m4 12h16"/>
		</symbol>
		<symbol id="i-edit" viewBox="0 0 24 24">
				<path id="path18" d="m4 17.5 1.5 2.5 3.7-0.7 9.8-9.8-3.5-3.5-11.5 11.5z"/>
				<path id="path19" d="m15.5 6 1.9-1.9a1.4 1.4 0 0 1 2 2L19 7.5"/>
		</symbol>
		<symbol id="i-trash" viewBox="0 0 24 24">
				<path id="path20" d="m5 7h14"/>
				<path id="path21" d="m10 10v7m4-7v7"/>
				<path id="path22" d="M9 7V5a1 1 0 0 1 1-1h4a1 1 0 0 1 1 1v2"/>
				<path id="path23" d="M6 7v11a2 2 0 0 0 2 2h8a2 2 0 0 0 2-2V7"/>
		</symbol>
		<symbol id="i-download" viewBox="0 0 24 24">
				<path id="path24" d="m5 20h14"/>
				<path id="path25" d="m12 4v12"/>
				<path id="path26" d="m7.5 12.5 4.5 4.5 4.5-4.5"/>
		</symbol>
		<symbol id="i-download-box" viewBox="0 0 24 24">
				<path id="path27" d="m4 13v6a1 1 0 0 0 1 1h14a1 1 0 0 0 1-1v-6"/>
				<path id="path28" d="m12 4v10"/>
				<path id="path29" d="m7.5 10.5 4.5 4.5 4.5-4.5"/>
		</symbol>
		<symbol id="i-download-archive" viewBox="0 0 24 24">
				<path id="path30" d="M5.2 6 3.5 9.5 12 20l8.5-10.5L18.8 6H5.2Z"/>
				<path id="path31" d="m12 3v9.5"/>
				<path id="path32" d="m8.8 9.5 3.2 3.2 3.2-3.2"/>
		</symbol>
		<symbol id="i-download-file" viewBox="0 0 24 24">
				<path id="path33" d="M7 3h6l5 5v11a2 2 0 0 1-2 2H7a2 2 0 0 1-2-2V5a2 2 0 0 1 2-2Z"/>
				<path id="path34" d="m13 3v5h5"/>
				<path id="path35" d="m12 9v7"/>
				<path id="path36" d="m8.8 13.3 3.2 3.2 3.2-3.2"/>
		</symbol>
		<symbol id="i-upload" viewBox="0 0 24 24">
				<path id="path37" d="m5 20h14"/>
				<path id="path38" d="M12 20V8"/>
				<path id="path39" d="m16.5 11.5-4.5-4.5-4.5 4.5"/>
		</symbol>
		<symbol id="i-clipboard" viewBox="0 0 24 24">
				<path id="path40" d="m9 5h6"/>
				<path id="path41" d="M8 3h8a1 1 0 0 1 1 1v2H7V4a1 1 0 0 1 1-1Z"/>
				<path id="path42" d="M7 7h10v13a1 1 0 0 1-1 1H8a1 1 0 0 1-1-1V7Z"/>
		</symbol>
		<symbol id="i-external" viewBox="0 0 24 24">
				<path id="path43" d="m14 5h5v5"/>
				<path id="path44" d="m20 4-7.5 7.5"/>
				<path id="path45" d="M10 5H7a2 2 0 0 0-2 2v10a2 2 0 0 0 2 2h10c1.1 0 2-.9 2-2v-3"/>
		</symbol>
		<symbol id="i-info" viewBox="0 0 24 24">
				<circle id="circle45" cx="12" cy="12" r="9"/>
				<path id="path46" d="M12 10v7M12 7h.01"/>
		</symbol>
		<symbol id="i-warning" viewBox="0 0 24 24">
				<path id="path47" d="M12.9 4.5 21 19a1 1 0 0 1-.9 1.5H3.9A1 1 0 0 1 3 19l8.1-14.5a1 1 0 0 1 1.8 0Z"/>
				<path id="path48" d="m12 9v5"/>
				<path id="path49" d="M12 16h.01"/>
		</symbol>
		<symbol id="i-error" viewBox="0 0 24 24">
				<path id="path50" d="M8 3h8l5 5v8l-5 5H8l-5-5V8l5-5Z"/>
				<path id="path51" d="m9.5 9.5 5 5m0-5-5 5"/>
		</symbol>
		<symbol id="i-check" viewBox="0 0 24 24">
				<path id="path52" d="m4 13 5.5 5.5 10.5-12"/>
		</symbol>
		<symbol id="i-close" viewBox="0 0 24 24">
				<path id="path53" d="M5 5 19 19M19 5 5 19"/>
		</symbol>
		<symbol id="i-user" viewBox="0 0 24 24">
				<circle id="circle53" cx="12" cy="9" r="4"/>
				<path id="path54" d="m5 20c1.5-3.3 4.5-5 7-5s5.5 1.7 7 5"/>
		</symbol>
		<symbol id="i-lock" viewBox="0 0 24 24">
				<rect id="rect54" x="5" y="11" width="14" height="9" rx="1.4"/>
				<path id="path55" d="M8 11V8a4 4 0 0 1 8 0v3"/>
				<path id="path56" d="m12 14v2"/>
		</symbol>
		<symbol id="i-lock-open" viewBox="0 0 24 24">
				<rect id="rect56" x="5" y="11" width="14" height="9" rx="1.4"/>
				<path id="path57" d="M8 11V8a4 4 0 0 1 7.7-1.3"/>
				<path id="path58" d="m12 14v2"/>
		</symbol>
		<symbol id="i-tag" viewBox="0 0 24 24">
				<path id="path59" d="M4 11.5V4h7.5L21 13.5l-7.5 7.5L4 11.5Z"/>
				<circle id="circle59" cx="9" cy="9" r="1.4"/>
		</symbol>
		<symbol id="i-star" viewBox="0 0 24 24">
				<path id="path60" d="m12 4 2.2 4.5 5 .7-3.6 3.6.9 5.1-4.5-2.4-4.5 2.4.9-5.1L4.8 9.2l5-.7L12 4Z"/>
		</symbol>
		<symbol id="i-eye" viewBox="0 0 24 24">
				<path id="path61" d="m3 12c2.2-4 5.6-6 9-6s6.8 2 9 6c-2.2 4-5.6 6-9 6s-6.8-2-9-6z"/>
				<circle id="circle61" cx="12" cy="12" r="2.6"/>
		</symbol>
		<symbol id="i-eye-off" viewBox="0 0 24 24">
				<path id="path62" d="M3 12c.9-1.6 2-2.9 3.2-3.9M9.5 6.8A10 10 0 0 1 12 6c3.4 0 6.8 2 9 6-.8 1.5-1.8 2.8-3 3.8"/>
				<path id="path63" d="M14.5 17.2A8.6 8.6 0 0 1 12 18c-3.4 0-6.8-2-9-6a17 17 0 0 1 1.4-2.3"/>
				<circle id="circle63" cx="12" cy="12" r="2.6"/>
				<path id="path64" d="m4 4 16 16"/>
		</symbol>
		<symbol id="i-bell" viewBox="0 0 24 24">
				<path id="path65" d="M18 14V11a6 6 0 1 0-12 0v3l-1.5 2.3a.6.6 0 0 0 .5.9h15a.6.6 0 0 0 .5-.9L18 14Z"/>
				<path id="path66" d="m10 19a2 2 0 0 0 4 0"/>
		</symbol>
		<symbol id="i-terminal" viewBox="0 0 24 24">
				<rect id="rect66" x="3" y="5" width="18" height="14" rx="1.6"/>
				<path id="path67" d="m7 10 3 2-3 2m4.5 0h5.5"/>
		</symbol>
		<symbol id="i-database" viewBox="0 0 24 24">
				<ellipse id="ellipse67" cx="12" cy="6" rx="7" ry="3"/>
				<path id="path68" d="M5 6v12c0 1.7 3.1 3 7 3s7-1.3 7-3V6"/>
				<path id="path69" d="m5 12c0 1.7 3.1 3 7 3s7-1.3 7-3"/>
		</symbol>
		<symbol id="i-link" viewBox="0 0 24 24">
				<path id="path70" d="M8.5 14.5 7 16a4 4 0 0 0 5.7 5.7l2.2-2.2a4 4 0 0 0 0-5.7l-1.3-1.3"/>
				<path id="path71" d="M15.5 9.5 17 8a4 4 0 0 0-5.7-5.7L9 4.5a4 4 0 0 0 0 5.7l1.3 1.3"/>
		</symbol>
		<symbol id="i-unlink" viewBox="0 0 24 24">
				<path id="path72" d="m8.5 14.5-1.6 1.6a4 4 0 0 0 5.6 5.6l2.2-2.2a4 4 0 0 0 0-5.6l-1.2-1.2"/>
				<path id="path73" d="M15.5 9.5 17 8a4 4 0 0 0-5.6-5.6L9 4.8a4 4 0 0 0 0 5.6l1.2 1.2"/>
				<path id="path74" d="m5 5 14 14"/>
		</symbol>
		<symbol id="i-list" viewBox="0 0 24 24">
				<path id="path75" d="M9 6h11M9 12h11M9 18h11"/>
				<path id="path76" d="M4 6h.01M4 12h.01M4 18h.01"/>
		</symbol>
		<symbol id="i-grid" viewBox="0 0 24 24">
				<rect id="rect76" x="4" y="4" width="6" height="6" rx="1"/>
				<rect id="rect77" x="14" y="4" width="6" height="6" rx="1"/>
				<rect id="rect78" x="4" y="14" width="6" height="6" rx="1"/>
				<rect id="rect79" x="14" y="14" width="6" height="6" rx="1"/>
		</symbol>
		<symbol id="i-arrow-right" viewBox="0 0 24 24">
				<path id="path79" d="m5 12h14"/>
				<path id="path80" d="m13 6 6 6-6 6"/>
		</symbol>
		<symbol id="i-chevron-down" viewBox="0 0 24 24">
				<path id="path81" d="m6 9.5 6 5.5 6-5.5"/>
		</symbol>
		<symbol id="i-folder" viewBox="0 0 24 24">
				<path id="path82" d="M3 6a2 2 0 0 1 2-2h4l2 2h8a2 2 0 0 1 2 2v1H3V6Z"/>
				<path id="path83" d="M3 10h18v6a2 2 0 0 1-2 2H5a2 2 0 0 1-2-2v-6Z"/>
		</symbol>
		<symbol id="i-file" viewBox="0 0 24 24">
				<path id="path84" d="M7 3h6l5 5v11a2 2 0 0 1-2 2H7a2 2 0 0 1-2-2V5a2 2 0 0 1 2-2Z"/>
				<path id="path85" d="m13 3v5h5"/>
		</symbol>

		<symbol id="i-color" viewBox="0 0 24 24">
				<path id="path88" d="M12 3a9 9 0 0 0-9 9 9 9 0 0 0 9 9h.5a2.5 2.5 0 0 0 2.45-2.02c.07-.34.37-.63.72-.71.7-.15 1.43-.24 2.2-.24 1.78 0 3.13-1.57 2.96-3.33C20.97 8.59 16.95 3 12 3Z"/>
				<circle id="circle88" cx="8.5" cy="10.5" r="1"/>
				<circle id="circle89" cx="12" cy="8" r="1"/>
				<circle id="circle90" cx="15.5" cy="10.5" r="1"/>
		</symbol>

		<symbol id="i-check-circle" viewBox="0 0 24 24">

				<path id="path86" d="m12 21a9 9 0 1 0 0-18 9 9 0 0 0 0 18z"/>
				<path id="path87" d="m9 12 2 2 4-4"/>
		</symbol>
    
</svg>
