

<!-- Icon sprite (version 0.1). Include inline once near the start of <body> or serve as a static asset and embed with <object>, <iframe>, or fetch+inject. -->
<svg xmlns="http://www.w3.org/2000/svg" style="display:none;" aria-hidden="true">

  <!-- Core / Navigation -->
  <symbol id="i-book" viewBox="0 0 24 24">
    <path d="M4 5a2 2 0 0 1 2-2h11a3 3 0 0 1 3 3v13.5a.5.5 0 0 1-.79.407L17 18l-2.21 1.907a.5.5 0 0 1-.79-.407V6a1 1 0 0 0-1-1H6a2 2 0 0 1-2-2Z"/>
    <path d="M4 5v13a3 3 0 0 0 3 3h12"/>
  </symbol>

  <symbol id="i-palette" viewBox="0 0 24 24">
    <path d="M12 3a9 9 0 0 0-9 9 9 9 0 0 0 9 9h.5a2.5 2.5 0 0 0 2.45-2.02c.07-.34.37-.63.72-.71.7-.15 1.43-.24 2.2-.24 1.78 0 3.13-1.57 2.96-3.33C20.97 8.59 16.95 3 12 3Z"/>
    <circle cx="8.5" cy="10.5" r="1"/>
    <circle cx="12" cy="8" r="1"/>
    <circle cx="15.5" cy="10.5" r="1"/>
  </symbol>

  <symbol id="i-home" viewBox="0 0 24 24">
    <path d="M3 11.2 12 4l9 7.2v7.8A1 1 0 0 1 20 20H4a1 1 0 0 1-1-1v-7.8Z"/>
    <path d="M9 20v-6a1 1 0 0 1 1-1h4a1 1 0 0 1 1 1v6"/>
  </symbol>

  <symbol id="i-settings" viewBox="0 0 24 24">
    <circle cx="12" cy="12" r="3.25"/>
    <path d="M19.4 13.5c.04-.49.04-1.01 0-1.5l1.66-1.18a.6.6 0 0 0 .14-.78l-1.58-2.74a.6.6 0 0 0-.74-.26l-1.96.79a7.1 7.1 0 0 0-1.3-.75l-.3-2.1A.6.6 0 0 0 14.73 4h-3.46a.6.6 0 0 0-.59.48l-.3 2.1c-.46.19-.9.44-1.3.75l-1.96-.79a.6.6 0 0 0-.74.26L4.8 9.04a.6.6 0 0 0 .14.78L6.6 11c-.04.49-.04 1.01 0 1.5l-1.66 1.18a.6.6 0 0 0-.14.78l1.58 2.74c.16.28.5.4.74.26l1.96-.79c.4.31.84.56 1.3.75l.3 2.1c.05.29.3.48.59.48h3.46c.29 0 .54-.19.59-.48l.3-2.1c.46-.19.9-.44 1.3-.75l1.96.79c.24.14.58.02.74-.26l1.58-2.74a.6.6 0 0 0-.14-.78L19.4 13.5Z"/>
  </symbol>

  <symbol id="i-pin" viewBox="0 0 24 24">
    <path d="M12 21s6-6.4 6-11a6 6 0 1 0-12 0c0 4.6 6 11 6 11Z"/>
    <circle cx="12" cy="10" r="2.4"/>
  </symbol>

  <!-- Actions -->
  <symbol id="i-search" viewBox="0 0 24 24">
    <circle cx="11" cy="11" r="6"/>
    <path d="m16.2 16.2 3.3 3.3"/>
  </symbol>

  <symbol id="i-filter" viewBox="0 0 24 24">
    <path d="M4 5h16L14 13v4.8a1 1 0 0 1-1.5.9l-3-1.8a1 1 0 0 1-.5-.86V13L4 5Z"/>
  </symbol>

  <symbol id="i-sort-v" viewBox="0 0 24 24">
    <path d="M8 4v16m0 0-3-3m3 3 3-3"/>
    <path d="M16 20V4m0 0 3 3m-3-3-3 3"/>
  </symbol>

  <symbol id="i-refresh" viewBox="0 0 24 24">
    <path d="M20 5v5h-5"/>
    <path d="M4 19v-5h5"/>
    <path d="M6.3 9A7 7 0 0 1 18 10.2M17.7 15A7 7 0 0 1 6 13.8"/>
  </symbol>

  <symbol id="i-plus" viewBox="0 0 24 24">
    <path d="M12 4v16M4 12h16"/>
  </symbol>

  <symbol id="i-minus" viewBox="0 0 24 24">
    <path d="M4 12h16"/>
  </symbol>

  <symbol id="i-edit" viewBox="0 0 24 24">
    <path d="M4 17.5 5.5 20l3.7-.7L19 9.5 15.5 6 5 16.5 4 17.5Z"/>
    <path d="m15.5 6 1.9-1.9a1.4 1.4 0 0 1 2 2L19 7.5"/>
  </symbol>

  <symbol id="i-trash" viewBox="0 0 24 24">
    <path d="M5 7h14"/>
    <path d="M10 10v7M14 10v7"/>
    <path d="M9 7V5a1 1 0 0 1 1-1h4a1 1 0 0 1 1 1v2"/>
    <path d="M6 7v11a2 2 0 0 0 2 2h8a2 2 0 0 0 2-2V7"/>
  </symbol>

  <!-- Download / Upload -->
  <symbol id="i-download" viewBox="0 0 24 24">
    <path d="M5 20h14"/>
    <path d="M12 4v12"/>
    <path d="m7.5 12.5 4.5 4.5 4.5-4.5"/>
  </symbol>

  <symbol id="i-download-box" viewBox="0 0 24 24">
    <path d="M4 13v6a1 1 0 0 0 1 1h14a1 1 0 0 0 1-1v-6"/>
    <path d="M12 4v10"/>
    <path d="m7.5 10.5 4.5 4.5 4.5-4.5"/>
  </symbol>

  <symbol id="i-download-archive" viewBox="0 0 24 24">
    <path d="M5.2 6 3.5 9.5 12 20l8.5-10.5L18.8 6H5.2Z"/>
    <path d="M12 3v9.5"/>
    <path d="m8.8 9.5 3.2 3.2 3.2-3.2"/>
  </symbol>

  <symbol id="i-download-file" viewBox="0 0 24 24">
    <path d="M7 3h6l5 5v11a2 2 0 0 1-2 2H7a2 2 0 0 1-2-2V5a2 2 0 0 1 2-2Z"/>
    <path d="M13 3v5h5"/>
    <path d="M12 9v7"/>
    <path d="m8.8 13.3 3.2 3.2 3.2-3.2"/>
  </symbol>

  <symbol id="i-upload" viewBox="0 0 24 24">
    <path d="M5 20h14"/>
    <path d="M12 20V8"/>
    <path d="m16.5 11.5-4.5-4.5-4.5 4.5"/>
  </symbol>

  <!-- Clipboard / External -->
  <symbol id="i-clipboard" viewBox="0 0 24 24">
    <path d="M9 5h6"/>
    <path d="M8 3h8a1 1 0 0 1 1 1v2H7V4a1 1 0 0 1 1-1Z"/>
    <path d="M7 7h10v13a1 1 0 0 1-1 1H8a1 1 0 0 1-1-1V7Z"/>
  </symbol>

  <symbol id="i-external" viewBox="0 0 24 24">
    <path d="M14 5h5v5"/>
    <path d="M20 4 12.5 11.5"/>
    <path d="M10 5H7a2 2 0 0 0-2 2v10a2 2 0 0 0 2 2h10c1.1 0 2-.9 2-2v-3"/>
  </symbol>

  <!-- Status -->
  <symbol id="i-info" viewBox="0 0 24 24">
    <circle cx="12" cy="12" r="9"/>
    <path d="M12 10v7M12 7h.01"/>
  </symbol>

  <symbol id="i-warning" viewBox="0 0 24 24">
    <path d="M12.9 4.5 21 19a1 1 0 0 1-.9 1.5H3.9A1 1 0 0 1 3 19l8.1-14.5a1 1 0 0 1 1.8 0Z"/>
    <path d="M12 9v5"/>
    <path d="M12 16h.01"/>
  </symbol>

  <symbol id="i-error" viewBox="0 0 24 24">
    <path d="M8 3h8l5 5v8l-5 5H8l-5-5V8l5-5Z"/>
    <path d="M9.5 9.5 14.5 14.5M14.5 9.5 9.5 14.5"/>
  </symbol>

  <symbol id="i-check" viewBox="0 0 24 24">
    <path d="M4 13 9.5 18.5 20 6.5"/>
  </symbol>

  <symbol id="i-close" viewBox="0 0 24 24">
    <path d="M5 5 19 19M19 5 5 19"/>
  </symbol>

  <!-- User / Security -->
  <symbol id="i-user" viewBox="0 0 24 24">
    <circle cx="12" cy="9" r="4"/>
    <path d="M5 20c1.5-3.3 4.5-5 7-5s5.5 1.7 7 5"/>
  </symbol>

  <symbol id="i-lock" viewBox="0 0 24 24">
    <rect x="5" y="11" width="14" height="9" rx="1.4"/>
    <path d="M8 11V8a4 4 0 0 1 8 0v3"/>
    <path d="M12 14v2"/>
  </symbol>

  <symbol id="i-lock-open" viewBox="0 0 24 24">
    <rect x="5" y="11" width="14" height="9" rx="1.4"/>
    <path d="M8 11V8a4 4 0 0 1 7.7-1.3"/>
    <path d="M12 14v2"/>
  </symbol>

  <!-- Meta -->
  <symbol id="i-tag" viewBox="0 0 24 24">
    <path d="M4 11.5V4h7.5L21 13.5l-7.5 7.5L4 11.5Z"/>
    <circle cx="9" cy="9" r="1.4"/>
  </symbol>

  <symbol id="i-star" viewBox="0 0 24 24">
    <path d="m12 4 2.2 4.5 5 .7-3.6 3.6.9 5.1-4.5-2.4-4.5 2.4.9-5.1L4.8 9.2l5-.7L12 4Z"/>
  </symbol>

  <!-- Visibility -->
  <symbol id="i-eye" viewBox="0 0 24 24">
    <path d="M3 12c2.2-4 5.6-6 9-6s6.8 2 9 6c-2.2 4-5.6 6-9 6s-6.8-2-9-6Z"/>
    <circle cx="12" cy="12" r="2.6"/>
  </symbol>

  <symbol id="i-eye-off" viewBox="0 0 24 24">
    <path d="M3 12c.9-1.6 2-2.9 3.2-3.9M9.5 6.8A10 10 0 0 1 12 6c3.4 0 6.8 2 9 6-.8 1.5-1.8 2.8-3 3.8"/>
    <path d="M14.5 17.2A8.6 8.6 0 0 1 12 18c-3.4 0-6.8-2-9-6a17 17 0 0 1 1.4-2.3"/>
    <circle cx="12" cy="12" r="2.6"/>
    <path d="m4 4 16 16"/>
  </symbol>

  <!-- Notifications -->
  <symbol id="i-bell" viewBox="0 0 24 24">
    <path d="M18 14V11a6 6 0 1 0-12 0v3l-1.5 2.3a.6.6 0 0 0 .5.9h15a.6.6 0 0 0 .5-.9L18 14Z"/>
    <path d="M10 19a2 2 0 0 0 4 0"/>
  </symbol>

  <!-- Dev / Data -->
  <symbol id="i-terminal" viewBox="0 0 24 24">
    <rect x="3" y="5" width="18" height="14" rx="1.6"/>
    <path d="m7 10 3 2-3 2M11.5 14h5.5"/>
  </symbol>

  <symbol id="i-database" viewBox="0 0 24 24">
    <ellipse cx="12" cy="6" rx="7" ry="3"/>
    <path d="M5 6v12c0 1.7 3.1 3 7 3s7-1.3 7-3V6"/>
    <path d="M5 12c0 1.7 3.1 3 7 3s7-1.3 7-3"/>
  </symbol>

  <!-- Links -->
  <symbol id="i-link" viewBox="0 0 24 24">
    <path d="M8.5 14.5 7 16a4 4 0 0 0 5.7 5.7l2.2-2.2a4 4 0 0 0 0-5.7l-1.3-1.3"/>
    <path d="M15.5 9.5 17 8a4 4 0 0 0-5.7-5.7L9 4.5a4 4 0 0 0 0 5.7l1.3 1.3"/>
  </symbol>

  <symbol id="i-unlink" viewBox="0 0 24 24">
    <path d="m8.5 14.5-1.6 1.6a4 4 0 0 0 5.6 5.6l2.2-2.2a4 4 0 0 0 0-5.6l-1.2-1.2"/>
    <path d="M15.5 9.5 17 8a4 4 0 0 0-5.6-5.6L9 4.8a4 4 0 0 0 0 5.6l1.2 1.2"/>
    <path d="M5 5 19 19"/>
  </symbol>

  <!-- Views -->
  <symbol id="i-list" viewBox="0 0 24 24">
    <path d="M9 6h11M9 12h11M9 18h11"/>
    <path d="M4 6h.01M4 12h.01M4 18h.01"/>
  </symbol>

  <symbol id="i-grid" viewBox="0 0 24 24">
    <rect x="4" y="4" width="6" height="6" rx="1"/>
    <rect x="14" y="4" width="6" height="6" rx="1"/>
    <rect x="4" y="14" width="6" height="6" rx="1"/>
    <rect x="14" y="14" width="6" height="6" rx="1"/>
  </symbol>

  <!-- Arrows / Navigation -->
  <symbol id="i-arrow-right" viewBox="0 0 24 24">
    <path d="M5 12h14"/>
    <path d="m13 6 6 6-6 6"/>
  </symbol>


  <symbol id="i-chevron-down" viewBox="0 0 24 24">
    <path d="M6 9.5 12 15l6-5.5"/>
  </symbol>

  <!-- Filesystem -->
  <symbol id="i-folder" viewBox="0 0 24 24">
    <path d="M3 6a2 2 0 0 1 2-2h4l2 2h8a2 2 0 0 1 2 2v1H3V6Z"/>
    <path d="M3 10h18v6a2 2 0 0 1-2 2H5a2 2 0 0 1-2-2v-6Z"/>
  </symbol>

  <symbol id="i-file" viewBox="0 0 24 24">
    <path d="M7 3h6l5 5v11a2 2 0 0 1-2 2H7a2 2 0 0 1-2-2V5a2 2 0 0 1 2-2Z"/>
    <path d="M13 3v5h5"/>
  </symbol>

  	
<symbol id="i-menu" viewBox="0 0 24 24">
  <path d="M4 7h16M4 12h16M4 17h16" stroke-linecap="round"/>
</symbol>

<symbol id="i-color" viewBox="0 0 24 24">
	<path d="M12 3a9 9 0 0 0-9 9 9 9 0 0 0 9 9h.5a2.5 2.5 0 0 0 2.45-2.02c.07-.34.37-.63.72-.71.7-.15 1.43-.24 2.2-.24 1.78 0 3.13-1.57 2.96-3.33C20.97 8.59 16.95 3 12 3Z" />
	<circle cx="8.5" cy="10.5" r="1" />
	<circle cx="12" cy="8" r="1" />
	<circle cx="15.5" cy="10.5" r="1" />
</symbol>

<!-- End icons.svg -->
</svg>

